<?xml version="1.0" encoding="iso-8859-1"?>
<!-- Uploaded to: SVG Repo, www.svgrepo.com, Generator: SVG Repo Mixer Tools -->
<svg height="800px" width="800px" version="1.1" id="Layer_1" xmlns="http://www.w3.org/2000/svg" xmlns:xlink="http://www.w3.org/1999/xlink" 
	 viewBox="0 0 512.001 512.001" xml:space="preserve">
<path style="fill:#D80027;" d="M472.493,76.62c-50.426-47.357-129.697-44.87-177.054,5.557l-39.438,41.993l-39.438-41.993
	C169.206,31.75,89.935,29.263,39.509,76.62s-52.914,126.628-5.555,177.052l222.047,215.662l222.047-215.661
	C525.405,203.248,522.919,123.977,472.493,76.62z"/>
<path style="fill:#A2001D;" d="M472.493,76.62c-50.426-47.357-129.697-44.87-177.054,5.557l-39.438,41.993v345.165l222.047-215.661
	C525.405,203.248,522.919,123.977,472.493,76.62z"/>
<polygon style="fill:#FFFFFF;" points="327.112,241.778 284.445,241.778 284.445,199.112 227.557,199.112 227.557,241.778 
	184.89,241.778 184.89,298.667 227.557,298.667 227.557,341.334 284.445,341.334 284.445,298.667 327.112,298.667 "/>
</svg>